<svg width="1600" height="1200" viewBox="0 0 1600 1200" fill="none" xmlns="http://www.w3.org/2000/svg">
  <rect width="1600" height="1200" fill="#F7F3EE"/>
  <rect y="120" width="1600" height="580" fill="url(#sky)"/>
  <rect y="700" width="1600" height="500" fill="#E7DED2"/>
  <rect x="130" y="410" width="320" height="790" fill="#D4C3B2"/>
  <rect x="450" y="330" width="250" height="870" fill="#C6B09B"/>
  <rect x="860" y="240" width="310" height="960" fill="#B49379"/>
  <rect x="1170" y="360" width="250" height="840" fill="#CAB6A3"/>
  <rect x="0" y="770" width="1600" height="46" fill="#FAF7F2" fill-opacity="0.75"/>
  <circle cx="1160" cy="310" r="78" fill="#FFD9A6"/>
  <path d="M0 700C180 630 335 645 490 700C645 755 810 782 1010 700C1210 618 1395 620 1600 700V1200H0V700Z" fill="#EFE5D8"/>
  <defs>
    <linearGradient id="sky" x1="800" y1="120" x2="800" y2="700" gradientUnits="userSpaceOnUse">
      <stop stop-color="#FAD8B4"/>
      <stop offset="1" stop-color="#F3E6D6"/>
    </linearGradient>
  </defs>
</svg>
